<svg xmlns="http://www.w3.org/2000/svg" viewBox="0 0 200 200">
  <defs>
    <radialGradient id="glowGalaxy" cx="50%" cy="52%" r="62%">
      <stop offset="0%" stop-color="#A855F7" stop-opacity="0.5"/>
      <stop offset="100%" stop-color="#A855F7" stop-opacity="0"/>
    </radialGradient>
    <radialGradient id="furGalaxy" cx="35%" cy="30%" r="90%">
      <stop offset="0%" stop-color="#F0ABFC"/>
      <stop offset="45%" stop-color="#A855F7"/>
      <stop offset="100%" stop-color="#312E81"/>
    </radialGradient>
  </defs>
  <circle cx="100" cy="100" r="92" fill="url(#glowGalaxy)"/>
  <circle cx="100" cy="105" r="70" fill="none" stroke="#E9D5FF" stroke-width="1.5" opacity="0.4"/>
  <circle cx="45" cy="45" r="2" fill="#F5F3FF"/>
  <circle cx="150" cy="40" r="2" fill="#F5F3FF"/>
  <circle cx="165" cy="90" r="1.6" fill="#F5F3FF"/>
  <circle cx="32" cy="95" r="1.6" fill="#F5F3FF"/>
  <circle cx="100" cy="22" r="1.8" fill="#F5F3FF"/>
  <circle cx="170" cy="140" r="1.5" fill="#F5F3FF"/>
  <path d="M134 144 Q174 148 172 104" stroke="url(#furGalaxy)" stroke-width="14" fill="none" stroke-linecap="round"/>
  <ellipse cx="100" cy="142" rx="50" ry="32" fill="url(#furGalaxy)"/>
  <circle cx="100" cy="95" r="43" fill="url(#furGalaxy)"/>
  <path d="M62 66 L52 26 L91 56 Z" fill="url(#furGalaxy)"/>
  <path d="M138 66 L148 26 L109 56 Z" fill="url(#furGalaxy)"/>
  <path d="M67 59 L60 36 L84 56 Z" fill="#F5F3FF" opacity="0.5"/>
  <path d="M133 59 L140 36 L116 56 Z" fill="#F5F3FF" opacity="0.5"/>
  <circle cx="83" cy="94" r="7.5" fill="#FDE68A"/>
  <circle cx="117" cy="94" r="7.5" fill="#FDE68A"/>
  <circle cx="83" cy="94" r="3.6" fill="#4C1D95"/>
  <circle cx="117" cy="94" r="3.6" fill="#4C1D95"/>
  <path d="M100 101 L96 107 L104 107 Z" fill="#F472B6"/>
  <path d="M90 113 Q100 121 110 113" stroke="#F5F3FF" stroke-width="2.6" fill="none" stroke-linecap="round"/>
  <path d="M57 101 L26 95 M57 109 L26 112 M143 101 L174 95 M143 109 L174 112" stroke="#F5F3FF" stroke-width="1.7" opacity="0.8"/>
  <path d="M65 128 Q100 148 135 128" stroke="#F5F3FF" stroke-width="2.2" opacity="0.4" fill="none"/>
  <path d="M75 78 Q100 68 125 78" stroke="#F5F3FF" stroke-width="1.6" opacity="0.35" fill="none"/>
</svg>
