<svg xmlns="http://www.w3.org/2000/svg" viewBox="0 0 200 200">
  <defs>
    <radialGradient id="glowOverlord" cx="50%" cy="50%" r="68%">
      <stop offset="0%" stop-color="#FBBF24" stop-opacity="0.5"/>
      <stop offset="55%" stop-color="#A855F7" stop-opacity="0.25"/>
      <stop offset="100%" stop-color="#A855F7" stop-opacity="0"/>
    </radialGradient>
    <radialGradient id="furOverlord" cx="35%" cy="28%" r="95%">
      <stop offset="0%" stop-color="#FDE68A"/>
      <stop offset="40%" stop-color="#C084FC"/>
      <stop offset="100%" stop-color="#1E1B4B"/>
    </radialGradient>
    <linearGradient id="crownOverlord" x1="0" y1="0" x2="0" y2="1">
      <stop offset="0%" stop-color="#FFF3D6"/>
      <stop offset="100%" stop-color="#F59E0B"/>
    </linearGradient>
  </defs>
  <circle cx="100" cy="98" r="96" fill="url(#glowOverlord)"/>
  <circle cx="100" cy="104" r="74" fill="none" stroke="#FDE68A" stroke-width="1.8" opacity="0.5"/>
  <circle cx="40" cy="42" r="2" fill="#FFF3D6"/>
  <circle cx="155" cy="36" r="2" fill="#FFF3D6"/>
  <circle cx="172" cy="88" r="1.7" fill="#FFF3D6"/>
  <circle cx="26" cy="94" r="1.7" fill="#FFF3D6"/>
  <circle cx="100" cy="16" r="1.9" fill="#FFF3D6"/>
  <circle cx="178" cy="142" r="1.6" fill="#FFF3D6"/>
  <circle cx="14" cy="140" r="1.6" fill="#FFF3D6"/>
  <path d="M132 144 Q178 150 176 102" stroke="url(#furOverlord)" stroke-width="15" fill="none" stroke-linecap="round"/>
  <ellipse cx="100" cy="143" rx="52" ry="33" fill="url(#furOverlord)"/>
  <circle cx="100" cy="94" r="45" fill="url(#furOverlord)"/>
  <path d="M60 64 L48 20 L91 54 Z" fill="url(#furOverlord)"/>
  <path d="M140 64 L152 20 L109 54 Z" fill="url(#furOverlord)"/>
  <path d="M65 57 L57 32 L84 54 Z" fill="#FFF3D6" opacity="0.55"/>
  <path d="M135 57 L143 32 L116 54 Z" fill="#FFF3D6" opacity="0.55"/>
  <!-- crown -->
  <path d="M74 54 L80 34 L92 48 L100 30 L108 48 L120 34 L126 54 Z" fill="url(#crownOverlord)" stroke="#B45309" stroke-width="1.5"/>
  <circle cx="100" cy="32" r="3" fill="#F87171"/>
  <circle cx="83" cy="94" r="8" fill="#FFF3D6"/>
  <circle cx="117" cy="94" r="8" fill="#FFF3D6"/>
  <circle cx="83" cy="94" r="3.8" fill="#3B0764"/>
  <circle cx="117" cy="94" r="3.8" fill="#3B0764"/>
  <path d="M100 101 L96 108 L104 108 Z" fill="#F472B6"/>
  <path d="M89 114 Q100 123 111 114" stroke="#FFF3D6" stroke-width="2.8" fill="none" stroke-linecap="round"/>
  <path d="M55 100 L22 93 M55 109 L22 111 M145 100 L178 93 M145 109 L178 111" stroke="#FFF3D6" stroke-width="1.8" opacity="0.85"/>
  <path d="M62 126 Q100 150 138 126" stroke="#FFF3D6" stroke-width="2.4" opacity="0.45" fill="none"/>
  <path d="M72 76 Q100 64 128 76" stroke="#FFF3D6" stroke-width="1.7" opacity="0.4" fill="none"/>
</svg>
