<svg xmlns="http://www.w3.org/2000/svg" viewBox="0 0 200 200">
  <defs>
    <radialGradient id="glowGod" cx="50%" cy="42%" r="65%">
      <stop offset="0%" stop-color="#FBBF24" stop-opacity="0.55"/>
      <stop offset="55%" stop-color="#F97316" stop-opacity="0.25"/>
      <stop offset="100%" stop-color="#F97316" stop-opacity="0"/>
    </radialGradient>
    <linearGradient id="godBody" x1="0" y1="0" x2="0" y2="1">
      <stop offset="0%" stop-color="#FFF7E0"/>
      <stop offset="100%" stop-color="#F2B90A"/>
    </linearGradient>
    <linearGradient id="godTrim" x1="0" y1="0" x2="1" y2="0">
      <stop offset="0%" stop-color="#FFFDF3"/>
      <stop offset="100%" stop-color="#FDE68A"/>
    </linearGradient>
  </defs>
  <circle cx="100" cy="95" r="95" fill="url(#glowGod)"/>
  <circle cx="100" cy="105" r="76" fill="none" stroke="#FDE68A" stroke-width="1.6" opacity="0.5"/>
  <!-- speed lines -->
  <path d="M20 70 L46 76 M14 100 L44 102 M22 130 L48 126" stroke="#FDE68A" stroke-width="2.5" opacity="0.6" stroke-linecap="round"/>
  <path d="M180 70 L154 76 M186 100 L156 102 M178 130 L152 126" stroke="#FDE68A" stroke-width="2.5" opacity="0.6" stroke-linecap="round"/>
  <!-- head -->
  <circle cx="100" cy="44" r="23" fill="#FFFDF3" stroke="url(#godTrim)" stroke-width="2"/>
  <rect x="89" y="61" width="22" height="16" fill="#FFFDF3"/>
  <!-- wing-cape -->
  <path d="M56 82 L14 60 L24 118 L38 150 L58 140 Z" fill="url(#godTrim)"/>
  <path d="M144 82 L186 60 L176 118 L162 150 L142 140 Z" fill="url(#godTrim)"/>
  <!-- torso -->
  <path d="M56 78 Q100 62 144 78 L152 172 Q100 190 48 172 Z" fill="url(#godBody)"/>
  <!-- lightning bolt emblem -->
  <path d="M104 88 L86 122 L98 122 L92 154 L118 114 L104 114 Z" fill="#F97316" stroke="#FFFDF3" stroke-width="2"/>
  <!-- shoulders -->
  <circle cx="50" cy="84" r="16" fill="url(#godTrim)"/>
  <circle cx="150" cy="84" r="16" fill="url(#godTrim)"/>
  <circle cx="50" cy="84" r="6" fill="#F2B90A"/>
  <circle cx="150" cy="84" r="6" fill="#F2B90A"/>
</svg>
