<svg xmlns="http://www.w3.org/2000/svg" viewBox="0 0 200 200">
  <defs>
    <radialGradient id="glowClassic" cx="50%" cy="55%" r="55%">
      <stop offset="0%" stop-color="#F59E0B" stop-opacity="0.35"/>
      <stop offset="100%" stop-color="#F59E0B" stop-opacity="0"/>
    </radialGradient>
    <linearGradient id="bodyClassic" x1="0" y1="0" x2="0" y2="1">
      <stop offset="0%" stop-color="#C9CDD4"/>
      <stop offset="100%" stop-color="#8A8F99"/>
    </linearGradient>
    <linearGradient id="panelClassic" x1="0" y1="0" x2="0" y2="1">
      <stop offset="0%" stop-color="#E7E9ED"/>
      <stop offset="100%" stop-color="#AFB4BD"/>
    </linearGradient>
  </defs>
  <circle cx="100" cy="105" r="85" fill="url(#glowClassic)"/>
  <!-- legs -->
  <rect x="55" y="140" width="14" height="30" rx="6" fill="#71767F"/>
  <rect x="130" y="140" width="14" height="30" rx="6" fill="#71767F"/>
  <rect x="60" y="136" width="14" height="26" rx="6" fill="url(#bodyClassic)"/>
  <rect x="126" y="136" width="14" height="26" rx="6" fill="url(#bodyClassic)"/>
  <!-- tail -->
  <path d="M155 110 Q178 100 172 80" stroke="#8A8F99" stroke-width="7" fill="none" stroke-linecap="round"/>
  <circle cx="172" cy="78" r="6" fill="#F59E0B"/>
  <!-- body -->
  <rect x="52" y="95" width="96" height="52" rx="22" fill="url(#bodyClassic)"/>
  <rect x="64" y="104" width="72" height="20" rx="8" fill="url(#panelClassic)"/>
  <!-- head -->
  <rect x="38" y="70" width="56" height="46" rx="18" fill="url(#bodyClassic)"/>
  <path d="M30 78 Q22 70 30 60" stroke="#71767F" stroke-width="6" fill="none" stroke-linecap="round"/>
  <path d="M96 78 Q104 70 96 60" stroke="#71767F" stroke-width="6" fill="none" stroke-linecap="round"/>
  <!-- visor -->
  <rect x="48" y="86" width="36" height="14" rx="7" fill="#3A3E45"/>
  <rect x="52" y="90" width="12" height="6" rx="3" fill="#F59E0B"/>
  <rect x="68" y="90" width="12" height="6" rx="3" fill="#F59E0B"/>
</svg>
